<?xml version="1.0" encoding="utf-8"?>
<!-- Generator: Adobe Illustrator 24.1.2, SVG Export Plug-In . SVG Version: 6.00 Build 0)  -->
<svg version="1.1" id="Слой_1" xmlns="http://www.w3.org/2000/svg" xmlns:xlink="http://www.w3.org/1999/xlink" x="0px" y="0px"
	 viewBox="0 0 871 342" style="enable-background:new 0 0 871 342;" xml:space="preserve">
<style type="text/css">
	.st0{fill:url(#SVGID_1_);}
	.st1{enable-background:new    ;}
	.st2{fill:#FFFFFF;}
	.st3{fill:#0D0D0D;}
</style>
<g>
	
		<image style="overflow:visible;opacity:0.75;" width="361" height="360" xlink:href="57EA4FAB.png"  transform="matrix(1 0 0 1 -8 -8)">
	</image>
	<g>
		<g>
			<g>
				
					<linearGradient id="SVGID_1_" gradientUnits="userSpaceOnUse" x1="0" y1="589" x2="331" y2="589" gradientTransform="matrix(1 0 0 1 0 -424)">
					<stop  offset="0" style="stop-color:#833AB4"/>
					<stop  offset="0.5" style="stop-color:#CB181A"/>
					<stop  offset="1" style="stop-color:#FCB045"/>
				</linearGradient>
				<path class="st0" d="M308.2,330H22.8C10.2,330,0,319.8,0,307.2V22.8C0,10.2,10.2,0,22.8,0h285.4C320.8,0,331,10.2,331,22.8
					v284.4C331,319.8,320.8,330,308.2,330z"/>
			</g>
		</g>
	</g>
</g>
<g class="st1">
	<path class="st2" d="M219.3,284.9l-58.2-91.6h-44.5v91.6H70.8V41.8h89c58.2,0,101.7,18,101.7,73.6c0,36-21.6,59.5-54,69.4
		L274,284.9H219.3z M116.6,155h39.3c37.6,0,58.2-13.1,58.2-39.6s-20.6-35.3-58.2-35.3h-39.3C116.6,80.1,116.6,155,116.6,155z"/>
</g>
<g>
	
		<image style="overflow:visible;opacity:0.75;enable-background:new    ;" width="361" height="360" xlink:href="57EA4FAB.png"  transform="matrix(1.1082 0 0 1.1082 413.478 -123.4679)">
	</image>
	<g>
		
			<image style="overflow:visible;opacity:0.75;" width="543" height="156" xlink:href="57EA4FAF.png"  transform="matrix(1 0 0 1 342 -2)">
		</image>
		<g>
			<g>
				<g>
					<g class="st1">
						<path class="st3" d="M350.8,105.7c0-18.4,14.8-28,49.3-31.7c-0.3-8.4-4-14.8-14.5-14.8c-8,0-15.6,3.5-23.6,8.1l-8.1-14.8
							c10.1-6.3,22.3-11.3,35.8-11.3c21.7,0,32.9,13,32.9,37.8v50h-18.4l-1.7-9.2H402c-7.5,6.4-16.1,11.3-25.9,11.3
							C360.9,131.1,350.8,120.3,350.8,105.7z M400.1,105.1V87.8c-20.8,2.8-27.8,8.4-27.8,16.1c0,6.7,4.7,9.6,11.3,9.6
							C390,113.5,394.7,110.5,400.1,105.1z"/>
						<path class="st3" d="M445.5,43.3h18.4l1.5,11.3h0.6c7.5-7.3,16.2-13.5,27.8-13.5c18.5,0,26.5,12.9,26.5,34.4V129h-22.5V78.4
							c0-13.2-3.7-17.9-12.1-17.9c-7,0-11.5,3.4-17.9,9.6V129h-22.3V43.3z"/>
						<path class="st3" d="M538.7,86.3c0-28,17.4-45.1,36-45.1c9.6,0,15.6,3.7,21.7,9.3l-1-13.5V6.9h22.5V129h-18.2l-1.8-8.9h-0.5
							c-6.3,6.1-14.8,11-23.7,11C552.5,131.1,538.7,114.3,538.7,86.3z M595.4,103.8V66.1c-5.2-4.7-10.6-6.4-15.9-6.4
							c-9.6,0-17.7,9.2-17.7,26.3c0,17.7,6.4,26.6,17.7,26.6C585.5,112.6,590.6,110.2,595.4,103.8z"/>
						<path class="st3" d="M636.8,86.3c0-28.6,19.7-45.1,41.2-45.1c21.4,0,41.2,16.5,41.2,45.1c0,28.3-19.7,44.8-41.2,44.8
							S636.8,114.6,636.8,86.3z M696.1,86.3c0-16.2-6.6-26.8-18.2-26.8c-11.6,0-18.2,10.6-18.2,26.8c0,16.1,6.6,26.5,18.2,26.5
							S696.1,102.4,696.1,86.3z"/>
						<path class="st3" d="M737.9,43.3h18.4l1.5,11.5h0.6c7.2-7.5,15.1-13.6,26.3-13.6c12.2,0,19.4,5.5,23.6,15
							c7.8-8.3,16.1-15,27.2-15c18.2,0,26.6,12.9,26.6,34.4V129h-22.5V78.4c0-13.2-3.8-17.9-11.9-17.9c-4.9,0-10.4,3.2-16.5,9.6V129
							h-22.5V78.4c0-13.2-3.8-17.9-11.9-17.9c-4.9,0-10.4,3.2-16.5,9.6V129H738L737.9,43.3L737.9,43.3z"/>
					</g>
				</g>
			</g>
		</g>
	</g>
</g>
<g>
	<g>
		<g>
			<g class="st1">
				<g>
					
						<image style="overflow:visible;opacity:0.75;" width="98" height="121" xlink:href="57EA4FA9.png"  transform="matrix(1 0 0 1 349 190)">
					</image>
					<g>
						<path class="st3" d="M357.4,276.2l10.3-14.1c7.6,6,15,9.3,23,9.3c8.6,0,12.4-3.7,12.4-9c0-6.4-8.9-9.3-17.9-12.9
							c-10.9-4.1-23.4-10.7-23.4-24.9c0-15.5,12.5-26.3,31.8-26.3c12.5,0,22,5.2,29.2,10.6l-10.1,13.6c-6.1-4.3-12.1-7.3-18.5-7.3
							c-7.6,0-11.3,3.4-11.3,8.3c0,6.3,8.4,8.6,17.4,11.9c11.3,4.3,23.9,9.9,23.9,25.9c0,15-11.8,27.1-34.1,27.1
							C378.5,288.3,365.8,283.2,357.4,276.2z"/>
					</g>
				</g>
				<g>
					
						<image style="overflow:visible;opacity:0.75;" width="106" height="153" xlink:href="57EA4FA8.png"  transform="matrix(1 0 0 1 437 157)">
					</image>
					<g>
						<path class="st3" d="M445.5,165.1h22.3v30.8l-0.9,16.1c6.9-6.4,15.3-12.5,26.9-12.5c18.5,0,26.5,12.9,26.5,34.4v53.4h-22.5
							v-50.6c0-13.2-3.7-17.9-12.1-17.9c-7,0-11.5,3.4-17.9,9.6v58.9h-22.3V165.1z"/>
					</g>
				</g>
				<g>
					
						<image style="overflow:visible;opacity:0.75;" width="113" height="121" xlink:href="57EA4FA7.png"  transform="matrix(1 0 0 1 527 190)">
					</image>
					<g>
						<path class="st3" d="M535.2,243.4c0-28.6,19.7-45.1,41.2-45.1c21.4,0,41.2,16.5,41.2,45.1c0,28.3-19.7,44.8-41.2,44.8
							C554.9,288.3,535.2,271.7,535.2,243.4z M594.5,243.4c0-16.2-6.6-26.8-18.2-26.8c-11.6,0-18.2,10.6-18.2,26.8
							c0,16.1,6.6,26.5,18.2,26.5C588,269.9,594.5,259.5,594.5,243.4z"/>
					</g>
				</g>
				<g>
					
						<image style="overflow:visible;opacity:0.75;" width="111" height="152" xlink:href="57EA4FB7.png"  transform="matrix(1 0 0 1 628 189)">
					</image>
					<g>
						<path class="st3" d="M636.8,199.9h18.4l1.5,8.9h0.6c7.2-6.1,16.1-11,25.2-11c21.1,0,33.7,17.3,33.7,43.6
							c0,29.4-17.6,46.4-36.4,46.4c-7.5,0-14.7-3.4-21.3-9.3l0.6,14.1v26h-22.3V199.9z M693.1,241.7c0-16.4-5.2-25.4-17-25.4
							c-5.8,0-11,2.9-17,8.9v37.6c5.5,4.7,11,6.4,15.6,6.4C685.1,269.2,693.1,260.3,693.1,241.7z"/>
					</g>
				</g>
			</g>
		</g>
	</g>
</g>
<g id="Слой_2_1_">
</g>
<g id="Слой_3">
</g>
<g id="Слой_4">
</g>
<g id="Слой_5">
</g>
</svg>
